<mxfile host="Electron" modified="2024-06-26T19:47:34.223Z" agent="Mozilla/5.0 (Windows NT 10.0; Win64; x64) AppleWebKit/537.36 (KHTML, like Gecko) draw.io/24.4.13 Chrome/124.0.6367.207 Electron/30.0.6 Safari/537.36" etag="J9rYi1LYiCmVQFpaM-id" version="24.4.13" type="device">
  <diagram name="Page-1" id="icryY1GYA7JzrDMbyhIR">
    <mxGraphModel dx="509" dy="378" grid="1" gridSize="10" guides="1" tooltips="1" connect="1" arrows="1" fold="1" page="1" pageScale="1" pageWidth="827" pageHeight="1169" math="0" shadow="0">
      <root>
        <mxCell id="0" />
        <mxCell id="1" parent="0" />
        <mxCell id="mA4OGnou2N2cLZ_PhRf5-11" value="Benutzer" style="shape=umlActor;verticalLabelPosition=bottom;verticalAlign=top;html=1;outlineConnect=0;" parent="1" vertex="1">
          <mxGeometry x="40" y="40" width="40" height="80" as="geometry" />
        </mxCell>
        <mxCell id="mA4OGnou2N2cLZ_PhRf5-12" value="" style="endArrow=none;dashed=1;html=1;dashPattern=1 3;strokeWidth=2;rounded=0;" parent="1" source="mA4OGnou2N2cLZ_PhRf5-22" edge="1">
          <mxGeometry width="50" height="50" relative="1" as="geometry">
            <mxPoint x="60" y="680" as="sourcePoint" />
            <mxPoint x="60" y="140" as="targetPoint" />
          </mxGeometry>
        </mxCell>
        <mxCell id="mA4OGnou2N2cLZ_PhRf5-13" value="&lt;div&gt;&amp;lt;&amp;lt;Frontend&amp;gt;&amp;gt;&lt;/div&gt;&lt;div&gt;Chatfenster&lt;/div&gt;" style="html=1;whiteSpace=wrap;" parent="1" vertex="1">
          <mxGeometry x="120" y="80" width="120" height="40" as="geometry" />
        </mxCell>
        <mxCell id="mA4OGnou2N2cLZ_PhRf5-14" value="&amp;lt;&amp;lt;Backend&amp;gt;&amp;gt;&lt;div&gt;Server&lt;/div&gt;" style="html=1;whiteSpace=wrap;" parent="1" vertex="1">
          <mxGeometry x="280" y="80" width="120" height="40" as="geometry" />
        </mxCell>
        <mxCell id="mA4OGnou2N2cLZ_PhRf5-15" value="&amp;lt;&amp;lt;Backend&amp;gt;&amp;gt;&lt;div&gt;Datenbank&lt;/div&gt;" style="html=1;whiteSpace=wrap;" parent="1" vertex="1">
          <mxGeometry x="440" y="80" width="120" height="40" as="geometry" />
        </mxCell>
        <mxCell id="mA4OGnou2N2cLZ_PhRf5-16" value="&amp;lt;&amp;lt;Extern&amp;gt;&amp;gt;&lt;div&gt;Ollama&lt;/div&gt;" style="html=1;whiteSpace=wrap;" parent="1" vertex="1">
          <mxGeometry x="600" y="80" width="120" height="40" as="geometry" />
        </mxCell>
        <mxCell id="mA4OGnou2N2cLZ_PhRf5-17" value="" style="endArrow=none;dashed=1;html=1;dashPattern=1 3;strokeWidth=2;rounded=0;" parent="1" edge="1">
          <mxGeometry width="50" height="50" relative="1" as="geometry">
            <mxPoint x="179.6052631578948" y="180" as="sourcePoint" />
            <mxPoint x="179.5" y="120" as="targetPoint" />
          </mxGeometry>
        </mxCell>
        <mxCell id="mA4OGnou2N2cLZ_PhRf5-18" value="" style="endArrow=none;dashed=1;html=1;dashPattern=1 3;strokeWidth=2;rounded=0;" parent="1" source="mA4OGnou2N2cLZ_PhRf5-25" edge="1">
          <mxGeometry width="50" height="50" relative="1" as="geometry">
            <mxPoint x="340" y="680" as="sourcePoint" />
            <mxPoint x="339.5" y="120" as="targetPoint" />
          </mxGeometry>
        </mxCell>
        <mxCell id="mA4OGnou2N2cLZ_PhRf5-19" value="" style="endArrow=none;dashed=1;html=1;dashPattern=1 3;strokeWidth=2;rounded=0;" parent="1" edge="1">
          <mxGeometry width="50" height="50" relative="1" as="geometry">
            <mxPoint x="500" y="500" as="sourcePoint" />
            <mxPoint x="499.5" y="120" as="targetPoint" />
          </mxGeometry>
        </mxCell>
        <mxCell id="mA4OGnou2N2cLZ_PhRf5-20" value="" style="endArrow=none;dashed=1;html=1;dashPattern=1 3;strokeWidth=2;rounded=0;" parent="1" source="mA4OGnou2N2cLZ_PhRf5-29" edge="1">
          <mxGeometry width="50" height="50" relative="1" as="geometry">
            <mxPoint x="659" y="680" as="sourcePoint" />
            <mxPoint x="659.41" y="120" as="targetPoint" />
          </mxGeometry>
        </mxCell>
        <mxCell id="mA4OGnou2N2cLZ_PhRf5-21" value="" style="endArrow=none;dashed=1;html=1;dashPattern=1 3;strokeWidth=2;rounded=0;" parent="1" target="mA4OGnou2N2cLZ_PhRf5-22" edge="1">
          <mxGeometry width="50" height="50" relative="1" as="geometry">
            <mxPoint x="60" y="500" as="sourcePoint" />
            <mxPoint x="60" y="140" as="targetPoint" />
          </mxGeometry>
        </mxCell>
        <mxCell id="mA4OGnou2N2cLZ_PhRf5-22" value="" style="rounded=0;whiteSpace=wrap;html=1;" parent="1" vertex="1">
          <mxGeometry x="50" y="170" width="20" height="290" as="geometry" />
        </mxCell>
        <mxCell id="mA4OGnou2N2cLZ_PhRf5-23" value="" style="endArrow=none;dashed=1;html=1;dashPattern=1 3;strokeWidth=2;rounded=0;entryX=0.5;entryY=1;entryDx=0;entryDy=0;" parent="1" target="mA4OGnou2N2cLZ_PhRf5-30" edge="1">
          <mxGeometry width="50" height="50" relative="1" as="geometry">
            <mxPoint x="180" y="500" as="sourcePoint" />
            <mxPoint x="180" y="630" as="targetPoint" />
          </mxGeometry>
        </mxCell>
        <mxCell id="mA4OGnou2N2cLZ_PhRf5-25" value="" style="rounded=0;whiteSpace=wrap;html=1;" parent="1" vertex="1">
          <mxGeometry x="330" y="190" width="20" height="210" as="geometry" />
        </mxCell>
        <mxCell id="mA4OGnou2N2cLZ_PhRf5-28" value="" style="endArrow=none;dashed=1;html=1;dashPattern=1 3;strokeWidth=2;rounded=0;" parent="1" target="mA4OGnou2N2cLZ_PhRf5-29" edge="1">
          <mxGeometry width="50" height="50" relative="1" as="geometry">
            <mxPoint x="660" y="500" as="sourcePoint" />
            <mxPoint x="659.41" y="120" as="targetPoint" />
          </mxGeometry>
        </mxCell>
        <mxCell id="mA4OGnou2N2cLZ_PhRf5-29" value="" style="rounded=0;whiteSpace=wrap;html=1;" parent="1" vertex="1">
          <mxGeometry x="650" y="230" width="20" height="150" as="geometry" />
        </mxCell>
        <mxCell id="mA4OGnou2N2cLZ_PhRf5-30" value="" style="rounded=0;whiteSpace=wrap;html=1;" parent="1" vertex="1">
          <mxGeometry x="170" y="170" width="20" height="260" as="geometry" />
        </mxCell>
        <mxCell id="mA4OGnou2N2cLZ_PhRf5-31" value="Topic" style="html=1;verticalAlign=bottom;endArrow=block;edgeStyle=elbowEdgeStyle;elbow=vertical;curved=0;rounded=0;exitX=0.991;exitY=0.062;exitDx=0;exitDy=0;exitPerimeter=0;" parent="1" source="mA4OGnou2N2cLZ_PhRf5-22" target="mA4OGnou2N2cLZ_PhRf5-30" edge="1">
          <mxGeometry relative="1" as="geometry">
            <mxPoint x="80" y="200" as="sourcePoint" />
            <Array as="points">
              <mxPoint x="165" y="200" />
            </Array>
            <mxPoint x="150" y="200" as="targetPoint" />
          </mxGeometry>
        </mxCell>
        <mxCell id="mA4OGnou2N2cLZ_PhRf5-32" value="Topic" style="html=1;verticalAlign=bottom;endArrow=block;edgeStyle=elbowEdgeStyle;elbow=vertical;curved=0;rounded=0;exitX=0.991;exitY=0.062;exitDx=0;exitDy=0;exitPerimeter=0;" parent="1" target="mA4OGnou2N2cLZ_PhRf5-25" edge="1">
          <mxGeometry relative="1" as="geometry">
            <mxPoint x="190" y="220" as="sourcePoint" />
            <Array as="points">
              <mxPoint x="285" y="221" />
            </Array>
            <mxPoint x="289" y="221" as="targetPoint" />
          </mxGeometry>
        </mxCell>
        <mxCell id="mA4OGnou2N2cLZ_PhRf5-34" value="Ok" style="html=1;verticalAlign=bottom;endArrow=open;dashed=1;endSize=8;edgeStyle=elbowEdgeStyle;elbow=vertical;curved=0;rounded=0;" parent="1" edge="1">
          <mxGeometry relative="1" as="geometry">
            <mxPoint x="350" y="369.9999999999999" as="targetPoint" />
            <Array as="points">
              <mxPoint x="560" y="370" />
              <mxPoint x="575" y="370" />
            </Array>
            <mxPoint x="650" y="370" as="sourcePoint" />
          </mxGeometry>
        </mxCell>
        <mxCell id="mA4OGnou2N2cLZ_PhRf5-41" value="Ok" style="html=1;verticalAlign=bottom;endArrow=open;dashed=1;endSize=8;edgeStyle=elbowEdgeStyle;elbow=horizontal;curved=0;rounded=0;" parent="1" edge="1">
          <mxGeometry relative="1" as="geometry">
            <mxPoint x="70" y="410" as="targetPoint" />
            <Array as="points">
              <mxPoint x="135" y="410" />
            </Array>
            <mxPoint x="170" y="410" as="sourcePoint" />
          </mxGeometry>
        </mxCell>
        <mxCell id="uvPyYhlJWgdxhaeM4Z1E-15" value="Topic" style="html=1;verticalAlign=bottom;endArrow=block;edgeStyle=elbowEdgeStyle;elbow=vertical;curved=0;rounded=0;exitX=0.991;exitY=0.062;exitDx=0;exitDy=0;exitPerimeter=0;" parent="1" edge="1">
          <mxGeometry relative="1" as="geometry">
            <mxPoint x="350" y="240" as="sourcePoint" />
            <Array as="points">
              <mxPoint x="445" y="241" />
            </Array>
            <mxPoint x="650" y="241" as="targetPoint" />
          </mxGeometry>
        </mxCell>
        <mxCell id="uvPyYhlJWgdxhaeM4Z1E-18" value="" style="endArrow=none;dashed=1;html=1;dashPattern=1 3;strokeWidth=2;rounded=0;entryX=0.5;entryY=1;entryDx=0;entryDy=0;" parent="1" edge="1" target="mA4OGnou2N2cLZ_PhRf5-25">
          <mxGeometry width="50" height="50" relative="1" as="geometry">
            <mxPoint x="340" y="500" as="sourcePoint" />
            <mxPoint x="340" y="420" as="targetPoint" />
          </mxGeometry>
        </mxCell>
        <mxCell id="-pI4LIxh2_o3d490bTDJ-1" value="Ok" style="html=1;verticalAlign=bottom;endArrow=open;dashed=1;endSize=8;edgeStyle=elbowEdgeStyle;elbow=horizontal;curved=0;rounded=0;" edge="1" parent="1">
          <mxGeometry relative="1" as="geometry">
            <mxPoint x="190" y="390" as="targetPoint" />
            <Array as="points">
              <mxPoint x="255" y="390" />
            </Array>
            <mxPoint x="330" y="390" as="sourcePoint" />
          </mxGeometry>
        </mxCell>
      </root>
    </mxGraphModel>
  </diagram>
</mxfile>
